<svg version="1" xmlns="http://www.w3.org/2000/svg" width="933.333" height="933.333" viewBox="0 0 700.000000 700.000000"><path d="M177.5 152.1c-2.7.5-7 1.1-9.5 1.5-7.8 1-24.1 5.3-35.1 9.4C82.8 181.3 42 218.5 19.5 266.5c-7.7 16.5-13.6 34.7-16.4 51-4 22.6-3.4 54.9 1.3 76C15 441.4 40.9 482.3 79 511.4c22.8 17.5 50.9 31 75 36.1.8.2 4.4 1 8 1.9 10.9 2.5 18.7 3.1 38.5 3.1 21.4 0 28.3-.6 43.9-4.1 21.8-4.8 46.8-15.1 64.1-26.4 4.4-2.9 8.2-5.4 8.4-5.6.2-.2-8.3-10.8-10.9-13.4-2.2-2.2-8.8-11.2-14.3-19.6-8.6-13.2-17.6-31.6-23-47.1-4.3-12.4-4.4-12.5-6.3-10.6-2.6 2.7-12.8 9.5-18.9 12.5-8.8 4.5-20.1 7.8-31.3 9.4-6.5.9-20.4.4-28.4-1.1-25.9-4.5-48.3-19.4-63.3-42-31.2-47-14.6-110.2 35.9-137.5 7.8-4.1 14.2-6.5 24.6-8.9 11.4-2.7 32.8-2.3 44.2.8 32.6 8.7 58.9 34.2 68.2 66.3 2.9 10.1 3.6 15.5 4.1 30.2.5 16.6 1.9 27.2 5.7 43.6 2.4 9.9 7.6 26.1 8.9 27.4.5.6.9 1.6.9 2.3 0 1.3 7.7 17.2 11.9 24.7 15.3 26.9 43 54.9 71.1 71.8 15.6 9.3 34.5 17.1 53 21.8 12.6 3.1 17.2 4 30.5 5.5 15.2 1.8 45 .5 56.5-2.5 1.9-.5 4.6-1.1 6-1.4 4.2-.8 18.4-4.6 20.5-5.5 1.1-.5 4.7-1.9 8-3.1 26-9.9 48.9-24.7 69.4-45 26.8-26.3 45.2-59.2 54-96 3.4-14.3 3.8-16.5 4.8-27.5 1.3-14.5.7-40.4-1.2-49.5-.3-1.4-.7-3.9-1-5.5-.4-2.9-3.7-16.8-5.4-23-1.8-6.3-7-19.3-11.1-27.9-19.7-41.2-53.2-74.9-94.1-94.7-16-7.8-41.5-15.9-54.4-17.4-1.6-.2-5.9-.8-9.5-1.4-6.5-.9-43.4-.8-48 .2-1.4.3-4.3.8-6.5 1.1-24.5 3.2-57.1 15.8-79.2 30.7l-7.4 5.1 2.5 3.1c22.8 28.2 36.1 52.7 44.1 81.2 1.5 5.5 2.9 10.1 3 10.3.1.1 1.7-1.1 3.6-2.8 11.1-10.1 26.1-18.1 40.9-22.2 7.2-1.9 10.8-2.3 24-2.2 11.5 0 17.2.5 22 1.8 22.1 5.9 38.8 16.4 52.7 33.3 7.9 9.5 13.1 19.8 18.1 35.3 3.6 11.3 4 36 .7 48-5 18.3-12.8 32-25.2 44.7-31.7 32.2-82 38-119.8 13.8-18-11.4-31.8-28.7-39-48.6-3.8-10.7-5.5-20.9-6-36.9-.6-18.8-1.8-27.9-6.1-45-13-51.2-46.6-96.1-92.5-123.8-21.7-13-47.3-22.1-75.4-26.7-6.2-1.1-45.4-1.3-51-.4z"/></svg>