<?xml version="1.0" encoding="utf-8"?>
<!-- Generator: Adobe Illustrator 19.0.0, SVG Export Plug-In . SVG Version: 6.00 Build 0)  -->
<svg version="1.1" id="Layer_1" xmlns="http://www.w3.org/2000/svg" xmlns:xlink="http://www.w3.org/1999/xlink" x="0px" y="0px"
	 viewBox="0 0 43.5 26.8" style="enable-background:new 0 0 43.5 26.8;" xml:space="preserve">
<style type="text/css">
	.st0{fill:#FFFFFF;}
</style>
<path class="st0" d="M16.8,9.7v4.2c0,2.5-2,4.5-4.5,4.5c-2.5,0-4.5-2-4.5-4.5V0.6c0-0.2,0-0.4,0-0.6H0c0,0,0,0,0,0v14.5
	c0,6.8,5.5,12.3,12.3,12.3s12.3-5.5,12.3-12.3V9.7H16.8z"/>
<polygon class="st0" points="43.5,0 17,0 17,7.8 26.5,7.8 26.5,26.8 34.3,26.8 34.3,7.8 43.5,7.8 "/>
</svg>
